<?xml version="1.0" encoding="UTF-8" standalone="no"?>
<svg version="1.1" height="610" width="576" 
	xmlns="http://www.w3.org/2000/svg" 
	xmlns:xlink="http://www.w3.org/1999/xlink">

<!--band-->
<path style="fill:#fd2;stroke:black;stroke-width:1.5;stroke-linejoin:round" d="m 187,562 
	c 31.3,11 65.4,16.5 101,16.5 c 35.6,0 69.7,-5.5 101,-16.5 	l 9,26 
	c -32,10.8 -69.8,17 -110,17	c -40.2,0 -78,-6.2 -110,-17 	l 9,-26 z"/>
<g id="band_half" style="fill:#fd2;stroke:black;stroke-width:1.5;stroke-linejoin:round">
  <path d="m 73,445.5 l 34,-5 c -14.2,-26.6 -21.7,-51.9 -23.5,-78 l -15,20 l -19,-15 c 1.8,26.1 9.3,51.4 23.5,78 z"/>
  <path style="fill:black;stroke:#c94" d="m 73,445.5 l 15,-38.5 l 34,-5 l -15,38.5 l -34,5 z"/>
  <path style="fill:black;stroke:#c94" d="m 251.5,534.5 l -12.5,26 l -61,26 l 7.5,-29.5 l 56,-23 z"/>
  <path d="m 122,402 l -34,5 c 4.7,82.8 58.2,129.2 150.5,155 l 13,-27.5 c -67.9,-18.4 -134.8,-59.4 -129.5,-132.5 z"/>
</g>
<use xlink:href="#band_half" transform="scale(-1,1) translate(-576,0)"/>


<!--tulips-->
<g id="tulip" style="fill:#fd2;stroke:black;stroke-width:2;stroke-linecap:round">
  <path d="m 4,288 
	c 24.9,-18.8 40.2,-46.5 78.9,-46.5 	c 51.8,0 64.2,39.9 123.1,46.5 
	c -58.9,6.6 -71.3,46.5 -123.1,46.5 	c -38.7,0 -54,-27.7 -78.9,-46.5 z"/>
  <path d="m 4,288 h 202"/>
  <g id="tulip_half">
    <path d="m 191,287 c -34.6,-1.4 -91.1,-42.4 -91.4,-76 c -0.2,-25.6 18.2,-43.4 32.5,-43.4 
	c 31.8,0 28.5,34.4 61.9,28.4 c -1.4,8.2 -14.6,15.6 -25.4,17 
	c -9.8,1.3 -14.9,-7.1 -21.1,-5.5 c -24.7,6 -9.2,51.3 43.5,62.5 z"/>
    <path fill="none" d="M 152.1,207.9 c -29.7,-12.5 -49.9,14.7 -24.6,36.56 
	M 142.5,186 c -23.7,-20.3 -47.2,13.3 -41,36"/>
    <path stroke-width="1.25px" d="m 203,268.5 c 11.9,-2.2 18,-9.8 24,-19 v 38 h -23 z"/>
    <path style="fill:black;stroke:none" d="m 203,275 
	c 12.2,-0.3 19.3,-2.5 24,-5.5 v 7 c -7.7,2.6 -16.4,2.7 -24,2.5 v -4 z"/>
  </g>
  <use xlink:href="#tulip_half" transform="scale(1,-1) translate(0,-576)"/>
  <rect x="187.5" y="242.5" width="17" height="91" rx="8.5" ry="9"/>
</g>
<use xlink:href="#tulip" transform="rotate(-90 288,288)"/>
<use xlink:href="#tulip" transform="rotate( 90 288,288)"/>
<use xlink:href="#tulip" transform="rotate(180 288,288)"/>


<!--trident-->
<g transform="scale(0.37) translate(613.378,554)">
  <path style="fill:none;stroke:black;stroke-width:15px" d="
	M 5,5 V345 c 0,23 13.3,44.9 35.7,54.8 L 165,455 289.3,399.8 C 311.7,389.9 325,368 325,345 v-340 h-320 z"/>
  <path style="fill:#159;stroke:#fd2;stroke-width:6px" d="
	M 5,5 V345 c 0,23 13.3,44.9 35.7,54.8 L 165,455 289.3,399.8 C 311.7,389.9 325,368 325,345 v-340 h-320 z"/>
  <path fill="#fd2" d="
	M165,30 c -9.3,10.6 -15,24.4 -15,39.6 c 0.6,33.4 4.6,66.7 5,100 c 0.7,31.1 -8.6,60.3 -19.9,88.8 
	c -3.8,7.9 -7.9,15.6 -12,23.3 l -12,-2.4 c -10.8,-2.2 -17.9,-12.7 -15.7,-23.5 
	c 1.9,-9.5 10.2,-16.1 19.5,-16.1 l 4.4,0.5 -9.8,-81.6 C 106.3,122.2 87.6,90.3 60,69.6 
	C 55.3,66.1 50.2,62.8 45,59.9 l 0,289.7 66.9,0 c 5,27.1 19.9,50.8 40.9,67 c 5,3.4 9.2,8 12.2,13.3 
	c 3,-5.3 7.2,-9.8 12.2,-13.3 c 21,-16.2 35.9,-39.9 40.9,-67 h66.9 v-289.7 c -5.2,2.9 -10.3,6.1 -15,9.7 
	c -27.6,20.7 -46.3,52.6 -49.5,88.9 l -9.8,81.6 4.4,-0.5 c 9.3,0 17.6,6.6 19.5,16.1 
	c 2.2,10.8 -4.9,21.4 -15.7,23.5 l -12,2.4 c -4.1,-7.7 -8.2,-15.4 -12,-23.3 C 183.6,229.9 174.3,200.7 175,169.6 
	c 0.4,-33.4 4.4,-66.7 5,-100 C 180,54.4 174.3,40.6 165,30 z 
	M 65,101.7 c 12.9,15.2 21.6,34.1 24.2,54.9 l 8,67.3 c -10.2,5.1 -18,14.5 -20.9,25.8 l -11.3,0 0,-148 z 
	m 200,0 0,148 -11.3,0 c -2.9,-11.3 -10.7,-20.7 -20.9,-25.8 l 8,-67.3 C 243.4,135.8 252.1,116.8 265,101.7 z 
	M 165,236.9 c 5.4,17.6 12.8,34.3 22,49.8 C 178.2,289.3 170.6,294.5 165,301.5 
	C 159.4,294.5 151.8,289.3 143,286.7 152.2,271.2 159.6,254.5 165,236.9 z 
	m -100,32.7 11.3,0 c 3.6,13.8 14.3,24.7 28,28.5 l 9.6,2.2 C 111.4,309.7 110,319.5 110,329.7 l -45,0 0,-60 z 
	m 188.7,0 11.3,0 0,60 -45,0 c 0,-10.1 -1.4,-20 -4,-29.3 l 9.6,-2.2 c 13.7,-3.8 24.5,-14.7 28,-28.5 z 
	M 133.5,305 C 145.6,306.7 155,317.1 155,329.7 l -25,0 c 0,-8.6 1.3,-16.8 3.5,-24.7 z 
	m 63,0 c 2.2,7.9 3.5,16.1 3.5,24.7 l -25,0 c 0,-12.6 9.4,-23 21.5,-24.7 z 
	m -64.2,44.7 22.7,0 0,42.1 c -11,-11.5 -19,-26 -22.7,-42.1 z 
	m 42.7,0 22.7,0 C 194,365.8 186,380.3 175,391.8 l 0,-42.1 z"/>
</g>


<!--motto-->
<!--Omnia-->
<path fill="black" d="m 114.3,440.8 
	c -0.8,0 -1.7,0.2 -2.5,0.5 -1.2,0.4 -2.2,1 -3.1,1.8 -1,0.9 -1.8,1.9 -2.3,3.1 -1,2.3 -1,4.8 
	-0,7.7 1.3,3.9 3.6,6.2 6.9,7 1.7,0.4 3.3,0.3 5,-0.2 2.6,-0.9 4.5,-2.5 5.5,-4.9 1,-2.3 1,-4.9 0,-7.8 -1.4,-3.9 
	-3.7,-6.2 -6.9,-7 -0.8,-0.2 -1.7,-0.3 -2.5,-0.2 z m 0.7,3.9 c 1.1,-0 2.1,0.2 3.1,0.8 1.3,0.7 2.2,1.9 
	2.8,3.5 0.5,1.6 0.5,3.1 -0.1,4.5 -0.7,1.6 -1.9,2.8 -3.9,3.4 -0.8,0.3 -1.6,0.4 -2.4,0.3 -0.9,-0.1 -1.8,-0.3 
	-2.6,-0.7 -1.3,-0.7 -2.2,-1.9 -2.8,-3.5 -0.6,-1.6 -0.5,-3.1 0.1,-4.5 0.7,-1.6 2,-2.8 3.8,-3.4 0.7,-0.2 1.3,-0.4 2,-0.4 
	z m 13.5,17.5 -0.4,0.2 c 0.1,0.3 0.1,0.6 0.1,0.7 -0.1,0.2 -0.2,0.3 -0.4,0.5 l -12.7,8 c -0.2,0.1 -0.4,0.2 
	-0.6,0.2 -0.2,-0 -0.4,-0.2 -0.6,-0.4 l -0.4,0.2 2.8,4.4 0.4,-0.2 c -0.1,-0.3 -0.1,-0.6 -0.1,-0.7 0.1,-0.2 
	0.2,-0.3 0.4,-0.5 l 9.2,-5.8 -6.7,12 13.9,-0.6 -9.2,5.8 c -0.2,0.1 -0.4,0.2 -0.6,0.2 -0.2,-0 -0.4,-0.2 -0.6,-0.4 
	l -0.4,0.2 3,4.7 0.4,-0.2 c -0.1,-0.3 -0.1,-0.6 -0.1,-0.7 0.1,-0.2 0.2,-0.3 0.4,-0.5 l 12.7,-8 c 0.2,-0.1 
	0.4,-0.2 0.6,-0.2 0.2,0 0.4,0.2 0.6,0.4 l 0.4,-0.2 -3.6,-5.7 -0.4,0.2 c 0.2,0.4 0.1,0.7 -0.2,0.9 -0.2,0.1 
	-0.5,0.2 -0.9,0.2 l -10,0.5 5,-8.9 c 0.1,-0.2 0.3,-0.4 0.4,-0.5 0.3,-0.2 0.6,-0.2 0.9,0.1 l 0.4,-0.2 
	z m 15.3,22.7 -0.3,0.3 c 0.2,0.3 0.2,0.5 0.2,0.7 -0,0.2 -0.1,0.4 -0.3,0.6 l -10.3,10.9 c -0.2,0.2 -0.4,0.3 
	-0.6,0.3 -0.2,0 -0.4,-0 -0.7,-0.2 l -0.3,0.3 3.8,3.6 0.3,-0.3 c -0.2,-0.3 -0.2,-0.5 -0.2,-0.7 0,-0.2 0.1,-0.4 0.3,-0.6 
	l 7.4,-7.9 0.2,14.3 c 0,0.6 -0,1 -0.2,1.1 -0.2,0.2 -0.5,0.2 -0.8,0 l -0.3,0.3 4.1,3.8 0.3,-0.3 c -0.2,-0.3 
	-0.2,-0.5 -0.2,-0.7 0,-0.2 0.1,-0.4 0.3,-0.6 l 10.3,-10.9 c 0.2,-0.2 0.4,-0.3 0.5,-0.3 0.2,-0 0.4,0 0.7,0.2 
	l 0.3,-0.3 -3.8,-3.6 -0.3,0.3 c 0.2,0.3 0.2,0.5 0.2,0.7 -0,0.2 -0.1,0.4 -0.3,0.6 l -7.2,7.7 -0.1,-14.1 
	c -0,-0.3 0.1,-0.6 0.2,-0.8 0.2,-0.2 0.5,-0.2 0.8,-0.1 l 0.3,-0.3 z m 19.9,17.2 -0.2,0.3 c 0.2,0.2 0.3,0.5 
	0.3,0.6 0,0.2 -0,0.4 -0.2,0.6 l -8.5,12.4 c -0.2,0.2 -0.3,0.4 -0.5,0.4 -0.2,0 -0.4,0 -0.7,-0.1 l -0.2,0.3 
	4.6,3.1 0.2,-0.3 c -0.2,-0.2 -0.3,-0.4 -0.4,-0.6 -0,-0.2 0,-0.4 0.2,-0.6 l 8.5,-12.4 c 0.1,-0.2 0.3,-0.3 
	0.5,-0.4 0.2,-0.1 0.4,-0 0.7,0.1 l 0.2,-0.3 z m 15.8,9.8 -0.2,0.4 c 0.4,0.4 0.5,0.8 0.3,1.1 -0.1,0.2 -0.4,0.5 -0.8,0.8 
	l -12.1,9.1 c -0.4,0.3 -0.8,0.5 -1,0.6 -0.2,0.1 -0.5,0.1 -0.9,-0 l -0.2,0.4 5.2,2.7 0.2,-0.4 c -0.4,-0.4 
	-0.6,-0.8 -0.4,-1.1 0.1,-0.2 0.3,-0.4 0.6,-0.6 l 2.2,-1.7 7.2,3.7 -0.1,2.8 c -0,0.4 -0.1,0.7 -0.1,0.8 
	-0.2,0.4 -0.6,0.5 -1.1,0.3 l -0.2,0.4 5.8,3 0.2,-0.4 c -0.3,-0.2 -0.5,-0.5 -0.6,-0.8 -0.1,-0.3 -0.1,-0.8 -0.1,-1.4 
	l 0.3,-15.3 c 10e-4,-0.4 0.1,-0.7 0.2,-0.9 0.2,-0.3 0.5,-0.4 1,-0.3 l 0.2,-0.4 z m 0.6,5.4 -0.4,6.9 -5.1,-2.7 z"/>
<!--Vincit-->
<path fill="black" d="m 225.8,576.9 
	l -0.1,0.4 c 0.4,0.1 0.6,0.3 0.7,0.4 0.1,0.2 0.3,0.7 0.5,1.5 l 4,14.1 c 0.2,0.6 0.2,1 0.2,1.1 
	-0.1,0.4 -0.4,0.7 -0.9,0.7 l -0.1,0.4 6,0.9 0.1,-0.4 c -0.5,-0.2 -0.8,-0.5 -0.7,-0.9 0,-0.2 0.2,-0.5 0.6,-1 
	l 8.1,-12.2 c 0.5,-0.7 0.8,-1.2 1,-1.3 0.2,-0.1 0.5,-0.2 0.8,-0.2 l 0.1,-0.4 -6,-0.9 -0.1,0.4 c 0.5,0.2 
	0.8,0.5 0.7,0.9 -0,0.2 -0.2,0.6 -0.5,1 l -6.3,9.6 -3.1,-11 c -0.1,-0.5 -0.2,-0.8 -0.1,-1.1 0.1,-0.4 0.4,-0.6 1,-0.6 
	l 0.1,-0.4 z m 118.2,0.2 -0.4,0.1 c -0,0.3 -0.1,0.6 -0.2,0.7 -0.1,0.1 -0.3,0.2 -0.6,0.3 l -14.8,2 c -0.3,0 
	-0.5,0 -0.6,-0.1 -0.1,-0.1 -0.3,-0.3 -0.4,-0.6 l -0.4,0.1 0.6,4.6 0.4,-0.1 c 0,-0.3 0.1,-0.5 0.2,-0.7 
	0.1,-0.1 0.3,-0.2 0.6,-0.3 l 5.5,-0.8 1.8,13.4 c 0,0.3 0,0.5 -0.1,0.6 -0.1,0.2 -0.3,0.3 -0.6,0.4 l 0.1,0.4 
	5.5,-0.8 -0.1,-0.4 c -0.3,-0 -0.6,-0.1 -0.7,-0.2 -0.1,-0.1 -0.2,-0.3 -0.3,-0.6 l -1.8,-13.4 5.5,-0.8 
	c 0.3,-0 0.5,-0 0.6,0.1 0.2,0.1 0.3,0.3 0.4,0.6 l 0.4,-0.1 z m -92.8,3.3 -0,0.4 c 0.3,0.1 0.5,0.2 0.6,0.4 
	0.1,0.1 0.2,0.4 0.1,0.6 l -1.4,15 c -0,0.3 -0.1,0.5 -0.2,0.6 -0.1,0.1 -0.4,0.2 -0.7,0.3 l -0,0.4 5.5,0.5 0,-0.4 
	c -0.3,-0.1 -0.5,-0.2 -0.6,-0.4 -0.1,-0.2 -0.1,-0.4 -0.1,-0.6 l 1.4,-15 c 0,-0.3 0.1,-0.5 0.2,-0.6 0.1,-0.1 
	0.4,-0.2 0.7,-0.3 l 0,-0.4 z m 70.2,0.3 -5.5,0.4 0,0.4 c 0.3,0.1 0.5,0.2 0.7,0.3 0.1,0.1 0.2,0.3 0.2,0.6 
	l 1.2,15 c 0,0.3 -0,0.5 -0.1,0.6 -0.1,0.1 -0.3,0.3 -0.6,0.4 l 0,0.4 5.5,-0.4 -0,-0.4 c -0.3,-0.1 -0.5,-0.1 
	-0.7,-0.3 -0.1,-0.1 -0.2,-0.3 -0.2,-0.6 l -1.2,-15 c -0,-0.3 0,-0.5 0.1,-0.6 0.1,-0.2 0.3,-0.3 0.6,-0.4 
	z m -58,0.8 -0,0.4 c 0.3,0.1 0.5,0.2 0.6,0.4 0.1,0.1 0.2,0.3 0.2,0.6 l -0.5,15 c -0,0.3 -0.1,0.5 -0.2,0.6 
	-0.1,0.1 -0.3,0.2 -0.7,0.3 l -0,0.4 5.2,0.2 0,-0.4 c -0.3,-0.1 -0.5,-0.2 -0.6,-0.4 -0.1,-0.1 -0.2,-0.4 -0.2,-0.6 
	l 0.4,-10.8 9.6,10.6 c 0.4,0.4 0.6,0.8 0.6,0.9 -0,0.3 -0.2,0.5 -0.6,0.5 l -0,0.4 5.6,0.2 0,-0.4 c -0.3,-0.1 
	-0.5,-0.2 -0.6,-0.4 -0.1,-0.1 -0.2,-0.4 -0.2,-0.6 l 0.5,-15 c 0,-0.3 0.1,-0.5 0.2,-0.6 0.1,-0.1 0.3,-0.2 0.7,-0.3 
	l 0,-0.4 -5.2,-0.2 -0,0.4 c 0.3,0.1 0.5,0.2 0.6,0.4 0.1,0.1 0.2,0.3 0.2,0.6 l -0.4,10.5 -9.4,-10.5 c 
	-0.2,-0.3 -0.3,-0.5 -0.3,-0.7 0,-0.3 0.2,-0.5 0.6,-0.6 l 0,-0.4 z m 36.5,0.1 c -3.8,0.1 -6.7,1.4 -8.5,3.8 
	-1.2,1.6 -1.8,3.5 -1.7,5.7 0,1.6 0.4,3 1.2,4.3 0.6,1.1 1.5,2.1 2.6,2.8 1.8,1.3 4.2,1.9 7,1.8 1.4,-0 2.6,-0.2 
	3.6,-0.5 1,-0.3 2.3,-0.9 3.7,-1.8 0.7,-0.4 1.1,-0.7 1.3,-0.7 0.2,-0 0.4,0.1 0.6,0.3 l 0.3,-0.2 -2.6,-3.6 -0.3,0.3 
	c 0,0.1 0,0.2 0,0.3 0,0.3 -0.1,0.5 -0.3,0.7 -0.2,0.2 -0.6,0.5 -1.1,0.8 -1.5,0.9 -3.1,1.4 -4.8,1.4 -2,0.1 
	-3.7,-0.4 -4.9,-1.4 -1.5,-1.2 -2.2,-2.7 -2.3,-4.6 -0.1,-1.9 0.6,-3.5 2,-4.7 1.2,-1 2.8,-1.6 4.8,-1.7 
	1.7,-0 3.4,0.3 4.9,1.2 0.6,0.3 1,0.6 1.2,0.8 0.2,0.2 0.3,0.4 0.3,0.7 0,0.1 -0,0.2 -0,0.4 l 0.4,0.2 2.4,-3.8 -0.3,-0.2 
	c -0.2,0.2 -0.4,0.4 -0.6,0.4 -0.2,0 -0.6,-0.2 -1.3,-0.6 -1.5,-0.8 -2.8,-1.4 -3.8,-1.6 -1,-0.3 -2.2,-0.4 -3.6,-0.3 z"/>
<!--Veritas-->
<path fill="black" d="m 457.2,438.8 
	l -0.3,0.3 c 0.1,0.3 0.1,0.5 0.1,0.7 -0,0.1 -0.2,0.4 -0.6,0.8 -1,1.2 -1.8,2.3 -2.3,3.1 -0.5,0.9 
	-0.9,1.8 -1.3,2.9 -0.8,2.6 -0.8,4.7 0,6.4 0.6,1.3 1.7,2.1 3.1,2.6 0.9,0.3 1.7,0.3 2.5,0.1 0.9,-0.2 1.6,-0.6 
	2.2,-1.2 0.4,-0.4 0.8,-0.9 1.1,-1.4 0.3,-0.5 0.7,-1.4 1.2,-2.6 l 0.8,-1.8 c 0.5,-1.2 1,-2 1.3,-2.4 0.4,-0.5 
	0.9,-0.7 1.5,-0.5 0.4,0.1 0.7,0.4 1,0.7 0.3,0.4 0.4,0.8 0.5,1.3 0.1,0.9 0,1.9 -0.3,3 -0.3,1 -0.8,2 -1.5,3 
	-0.7,1 -1.4,1.7 -2,2.1 -0.4,0.3 -0.8,0.3 -1.2,0.2 l -0.2,-0.1 -0.3,0.3 3.6,3.2 0.3,-0.3 c -0.1,-0.3 -0.1,-0.5 
	-0.1,-0.6 0,-0.1 0.2,-0.3 0.6,-0.7 1.8,-1.8 3,-3.9 3.7,-6.1 0.4,-1.2 0.6,-2.5 0.7,-3.7 0.1,-1.6 -0.2,-2.9 
	-0.9,-3.8 -0.7,-1.1 -1.6,-1.8 -2.8,-2.2 -0.8,-0.2 -1.5,-0.3 -2.3,-0.2 -0.8,0.1 -1.4,0.4 -2,0.8 -0.6,0.4 
	-1.1,1 -1.5,1.6 -0.4,0.6 -0.9,1.5 -1.4,2.6 l -0.8,1.9 c -0.5,1.3 -0.9,2.1 -1.2,2.4 -0.5,0.7 -1,0.9 -1.7,0.7 
	-0.4,-0.1 -0.7,-0.4 -0.9,-0.8 -0.2,-0.4 -0.4,-0.9 -0.4,-1.4 -0,-0.7 0.1,-1.5 0.4,-2.4 0.6,-2 1.7,-3.6 
	3.2,-4.7 0.5,-0.4 0.9,-0.5 1.1,-0.4 0,0 0.1,0 0.2,0.1 l 0.3,-0.3 z m -11.5,26.3 -3,5.5 0.4,0.2 c 0.4,-0.4 
	0.8,-0.4 1.1,-0.3 0.2,0.1 0.5,0.4 0.8,0.8 l 8.9,12.2 c 0.3,0.4 0.5,0.8 0.6,1 0.1,0.2 0,0.5 -0.1,0.9 
	l 0.4,0.2 2.8,-5.2 -0.4,-0.2 c -0.4,0.4 -0.8,0.6 -1.1,0.4 -0.2,-0.1 -0.4,-0.3 -0.6,-0.6 l -1.6,-2.2 3.8,-7.1 2.8,0.1 
	c 0.4,0 0.7,0.1 0.8,0.2 0.4,0.2 0.5,0.6 0.3,1.1 l 0.4,0.2 3.1,-5.8 -0.4,-0.2 c -0.2,0.3 -0.5,0.5 -0.8,0.6 
	-0.3,0.1 -0.8,0.1 -1.4,0.1 l -15.3,-0.5 c -0.4,-0 -0.7,-0.1 -0.9,-0.2 -0.3,-0.2 -0.4,-0.5 -0.3,-1 z 
	m 2.4,5 6.9,0.5 -2.8,5.1 z m -10.2,7.2 -0.3,0.3 c 0.2,0.3 0.3,0.5 0.3,0.7 0,0.2 -0.1,0.4 -0.3,0.6 l -9.5,11.5 
	c -0.2,0.2 -0.3,0.3 -0.5,0.3 -0.2,0 -0.4,-0 -0.7,-0.2 l -0.3,0.3 3.5,2.9 0.3,-0.3 c -0.2,-0.3 -0.3,-0.5 
	-0.3,-0.7 -0,-0.2 0.1,-0.4 0.2,-0.6 l 3.5,-4.2 10.4,8.6 c 0.2,0.2 0.3,0.3 0.4,0.5 0,0.2 -0,0.4 -0.2,0.7 
	l 0.3,0.3 3.5,-4.3 -0.3,-0.3 c -0.3,0.2 -0.5,0.3 -0.7,0.3 -0.2,0 -0.4,-0.1 -0.6,-0.3 l -10.4,-8.6 3.5,-4.2 
	c 0.2,-0.2 0.4,-0.3 0.5,-0.4 0.2,-0 0.4,0 0.7,0.1 l 0.3,-0.3 z m -14.5,17.5 -4.1,3.7 0.3,0.3 c 0.3,-0.1 
	0.5,-0.2 0.7,-0.2 0.2,0 0.4,0.1 0.5,0.3 l 10,11.2 c 0.2,0.2 0.3,0.4 0.3,0.6 0,0.2 -0.1,0.4 -0.3,0.7 
	l 0.3,0.3 4.1,-3.7 -0.3,-0.3 c -0.3,0.1 -0.5,0.2 -0.7,0.2 -0.2,-0 -0.4,-0.1 -0.6,-0.3 l -10,-11.2 c -0.2,-0.2 
	-0.3,-0.4 -0.3,-0.6 -0,-0.2 0.1,-0.4 0.3,-0.7 z m -10.2,10 c -0.7,10e-4 -1.4,0.2 -2.2,0.5 -0.7,0.3 -1.7,0.8 -2.8,1.6 
	l -9.3,6.2 0.2,0.3 c 0.3,-0.1 0.6,-0.1 0.7,-0.1 0.2,0 0.3,0.2 0.5,0.4 l 8.3,12.5 c 0.1,0.2 0.2,0.4 0.2,0.6 
	-0,0.2 -0.1,0.4 -0.4,0.6 l 0.2,0.3 4.6,-3.1 -0.2,-0.3 c -0.3,0.1 -0.5,0.1 -0.7,0.1 -0.2,-0.1 -0.3,-0.2 -0.5,-0.4 
	l -3.3,-4.9 3.9,-2.6 5.9,2.4 c 0.7,0.3 1.1,0.5 1.1,0.6 0.1,0.2 0,0.5 -0.3,0.8 l 0.2,0.3 5.4,-3.6 -0.2,-0.3 
	c -0.4,0.2 -0.7,0.3 -1.1,0.2 -0.4,-0.1 -1,-0.3 -2,-0.7 l -5.6,-2.2 c 2.4,-2.2 2.8,-4.5 1.2,-6.9 -0.5,-0.7 
	-1,-1.3 -1.7,-1.7 -0.7,-0.5 -1.5,-0.7 -2.3,-0.7 z m -1.1,3.5 c 0.7,-0.1 1.4,0.3 1.9,1.1 0.5,0.8 0.6,1.5 
	0.2,2.2 -0.2,0.3 -0.4,0.6 -0.7,0.8 -0.3,0.2 -0.8,0.6 -1.5,1.1 l -5,3.3 -2.6,-3.9 5,-3.3 c 0.8,-0.5 1.3,-0.8 
	1.6,-1 0.3,-0.2 0.7,-0.3 1,-0.3 z m -19.3,7.1 -0.4,0.2 c 0.1,0.3 0,0.6 -0,0.7 -0.1,0.2 -0.2,0.3 -0.5,0.4 
	l -14.3,6.8 0.2,0.4 c 0.3,-0.1 0.6,-0 0.7,0 0.2,0.1 0.3,0.2 0.4,0.5 l 6.5,13.6 c 0.1,0.2 0.1,0.5 0.1,0.6 
	-0,0.2 -0.2,0.4 -0.4,0.6 l 0.2,0.4 14.6,-6.9 c 0.2,-0.1 0.4,-0.1 0.6,-0.1 0.2,0 0.4,0.2 0.6,0.4 l 0.4,-0.2 
	-2,-4.1 -0.4,0.2 c 0.1,0.3 0,0.6 -0,0.7 -0.1,0.2 -0.2,0.3 -0.5,0.4 l -10.3,4.9 -2.1,-4.4 6.5,-3.1 c 0.2,-0.1 
	0.4,-0.1 0.6,-0.1 0.2,0 0.4,0.2 0.6,0.4 l 0.4,-0.2 -1.9,-4.1 -0.4,0.2 c 0.1,0.3 0,0.6 -0,0.7 -0.1,0.2 
	-0.2,0.3 -0.5,0.4 l -6.5,3.1 -1.8,-3.8 10,-4.8 c 0.2,-0.1 0.4,-0.1 0.6,-0.1 0.2,0 0.4,0.2 0.6,0.4 l 0.4,-0.2 
	z m -20.6,10.4 -5.7,2.1 0.1,0.4 c 0.6,-0.1 0.9,0 1.1,0.4 0.1,0.2 0.1,0.6 0.1,1.1 l -0.8,11.4 -8,-8.2 
	c -0.3,-0.3 -0.6,-0.6 -0.6,-0.9 -0.1,-0.4 0.1,-0.7 0.6,-1 l -0.1,-0.4 -5.9,2.2 0.1,0.4 c 0.4,-0.1 0.7,-0.1 
	0.9,0 0.2,0.1 0.6,0.5 1.2,1.1 l 10.4,10.4 c 0.4,0.4 0.7,0.7 0.7,0.9 0.2,0.4 -0,0.8 -0.5,1 l 0.1,0.4 5.7,-2.1 -0.1,-0.4 
	c -0.5,0.1 -0.9,-0 -1,-0.5 -0.1,-0.2 -0.1,-0.6 -0,-1.2 l 1.2,-14.6 
	c 0.1,-0.9 0.1,-1.4 0.2,-1.6 0.1,-0.2 0.3,-0.4 0.6,-0.6 z"/>

</svg>